<?xml version="1.0" encoding="UTF-8" standalone="no"?>
<!-- Created with Inkscape (http://www.inkscape.org/) -->

<svg
   xmlns:dc="http://purl.org/dc/elements/1.1/"
   xmlns:cc="http://creativecommons.org/ns#"
   xmlns:rdf="http://www.w3.org/1999/02/22-rdf-syntax-ns#"
   xmlns:svg="http://www.w3.org/2000/svg"
   xmlns="http://www.w3.org/2000/svg"
   xmlns:sodipodi="http://sodipodi.sourceforge.net/DTD/sodipodi-0.dtd"
   xmlns:inkscape="http://www.inkscape.org/namespaces/inkscape"
   width="600"
   height="300"
   viewBox="0 0 158.75 79.375002"
   version="1.1"
   id="svg8"
   inkscape:version="0.92.2 (unknown)"
   sodipodi:docname="langkatnetork.svg">
  <defs
     id="defs2" />
  <sodipodi:namedview
     id="base"
     pagecolor="#ffffff"
     bordercolor="#666666"
     borderopacity="1.0"
     inkscape:pageopacity="0.0"
     inkscape:pageshadow="2"
     inkscape:zoom="0.7"
     inkscape:cx="241.3884"
     inkscape:cy="140.15019"
     inkscape:document-units="mm"
     inkscape:current-layer="layer1"
     showgrid="false"
     inkscape:window-width="1360"
     inkscape:window-height="710"
     inkscape:window-x="0"
     inkscape:window-y="0"
     inkscape:window-maximized="1"
     units="px" />
  <metadata
     id="metadata5">
    <rdf:RDF>
      <cc:Work
         rdf:about="">
        <dc:format>image/svg+xml</dc:format>
        <dc:type
           rdf:resource="http://purl.org/dc/dcmitype/StillImage" />
        <dc:title></dc:title>
      </cc:Work>
    </rdf:RDF>
  </metadata>
  <g
     inkscape:label="Layer 1"
     inkscape:groupmode="layer"
     id="layer1"
     transform="translate(0,-217.62498)">
    <rect
       style="fill:#000000;fill-opacity:1;stroke:none;stroke-width:0.34274551;stroke-opacity:1"
       id="rect3863"
       width="160.89626"
       height="80.715393"
       x="-1.0690789"
       y="217.08641" />
    <path
       style="fill:#00f5f5;fill-opacity:1;stroke:none;stroke-width:0.22047207px;stroke-linecap:butt;stroke-linejoin:miter;stroke-opacity:1"
       d="M 6.7632973,228.3207 30.399187,278.22304 35.587703,228.3207 6.7632962,277.3102 24.052711,259.96609 30.399187,278.22304"
       id="path3848"
       inkscape:connector-curvature="0"
       sodipodi:nodetypes="cccccc" />
    <path
       sodipodi:nodetypes="cccccc"
       inkscape:connector-curvature="0"
       id="path3852"
       d="M 56.50894,282.07275 37.951774,228.3207 32.763256,278.22302 61.288222,233.51933 42.46066,247.56809 37.951774,228.3207"
       style="fill:#ffffff;fill-opacity:1;stroke:none;stroke-width:0.22047207px;stroke-linecap:butt;stroke-linejoin:miter;stroke-opacity:1" />
    <path
       d="m 103.05875,263.76003 -3.473145,4.30207 1.278785,1.58056 0.3178,-0.40216 -0.3178,-0.66402 1.81603,-2.24456 -0.43131,-0.53308 1.23339,-1.51508 z m -10.744825,0.37409 c -0.227006,0 -0.454013,0.28058 -0.454013,0.56114 v 5.79845 c 0,0.28058 0.227007,0.56114 0.454013,0.56114 h 4.275228 l 0.416173,-0.74819 v -1.87046 h -0.302665 v 1.87046 h -0.302675 v -1.87046 h -0.302675 v 1.87046 h -0.302664 v -1.87046 h -0.302676 v 1.87046 h -0.302675 v -1.87046 h -0.302664 v 1.87046 h -0.302675 v -1.87046 h -0.302676 v 1.87046 h -0.302664 v -1.87046 h -0.302675 v 1.87046 H 92.6166 l -0.151337,-0.18704 v -1.30933 l 0.151337,-0.0935 v -1.02876 l -0.151337,-0.0935 v -1.02875 l 0.151337,-0.18706 h 1.135011 l 0.03786,-0.74817 h 0.567511 l 0.07572,-0.74819 h 1.81603 l 0.07572,0.74819 h 0.567511 l 0.03786,0.74817 h 1.135022 l 0.151337,0.18706 v 1.02875 l -0.151337,0.0935 v 0.65467 l 0.227006,-0.42086 0.529671,-0.51437 v -2.71219 c 0,-0.28056 -0.227007,-0.56113 -0.454002,-0.56113 z m 11.380435,0.41151 -1.07447,1.31868 0.21186,0.26186 1.06692,-1.32803 z m 0.43131,0.53307 -1.07448,1.31869 0.21186,0.26187 1.06693,-1.32804 z m 0.4313,0.5331 -1.07447,1.31867 0.21186,0.26187 1.06693,-1.32803 z m 0.42375,0.52372 -1.07449,1.31869 0.21188,0.26185 1.06691,-1.32802 z m -2.08844,0.45827 -1.65712,2.04816 0.32537,0.66401 -1.49822,1.85177 0.64318,0.79494 1.49822,-1.85176 0.53725,0.3928 1.65712,-2.04815 z m 2.51975,0.0655 -1.07449,1.31867 0.21187,0.26187 1.06692,-1.32803 z m 0.4313,0.53308 -1.07448,1.32804 0.21187,0.26186 1.06691,-1.32803 z m 0.43131,0.53308 -1.23339,1.52444 -0.43887,-0.54244 -1.81603,2.25391 -0.53724,-0.40215 -0.32537,0.40215 1.28635,1.58989 3.48072,-4.30206 z m -7.173316,0.13091 -0.484269,0.46762 -1.195556,2.22586 1.354455,1.67407 -0.32537,0.3928 -1.293921,-1.5899 -0.340504,0.63596 1.203118,1.48702 -0.317798,0.40215 -1.142594,-1.40285 -0.340504,0.63595 1.05178,1.29998 -0.32537,0.40215 -0.983684,-1.21581 -0.340504,0.63597 0.900453,1.11292 -0.32537,0.40215 -0.839919,-1.0381 -0.340504,0.63595 0.749116,0.92589 c -3.200752,4.39559 -7.536525,-1.71148 -4.358469,-6.20061 v -1.40284 c -5.902097,6.26607 0.983684,14.88891 5.440517,8.90343 l 0.749115,0.92587 0.514537,-0.42084 -0.832346,-1.03813 0.317809,-0.39279 0.900443,1.11293 0.514537,-0.42086 -0.991245,-1.2158 0.32537,-0.40215 1.05178,1.29998 0.514548,-0.42086 -1.142582,-1.40286 0.32537,-0.40215 1.203117,1.48704 0.51454,-0.42087 -1.293923,-1.59925 0.325382,-0.40215 1.354451,1.67408 1.80089,-1.47768 0.37077,-0.59855 -1.60416,-1.98269 -1.23338,1.52444 -1.074488,-1.32805 1.233398,-1.52442 z"
       inkscape:connector-curvature="0"
       id="path4"
       style="fill:#00ffff;stroke-width:0.08412319" />
    <text
       xml:space="preserve"
       style="font-style:normal;font-weight:normal;font-size:26.82283783px;line-height:1.25;font-family:sans-serif;letter-spacing:0px;word-spacing:0px;fill:#00ffff;fill-opacity:1;stroke:none;stroke-width:0.67057091"
       x="56.214806"
       y="214.23918"
       id="text3817"
       transform="scale(0.81607864,1.2253721)"><tspan
         sodipodi:role="line"
         id="tspan3815"
         x="56.214806"
         y="214.23918"
         style="font-style:normal;font-variant:normal;font-weight:normal;font-stretch:normal;font-family:Ubuntu;-inkscape-font-specification:Ubuntu;fill:#00ffff;stroke-width:0.67057091">LANGKAT</tspan><tspan
         sodipodi:role="line"
         x="56.214806"
         y="247.76773"
         style="fill:#00ffff;stroke-width:0.67057091"
         id="tspan3819" /></text>
    <text
       xml:space="preserve"
       style="font-style:normal;font-weight:normal;font-size:16.81799889px;line-height:1.25;font-family:sans-serif;letter-spacing:0px;word-spacing:0px;fill:#ffffff;fill-opacity:1;stroke:none;stroke-width:0.42044994"
       x="52.272602"
       y="247.83809"
       id="text3823"
       transform="scale(0.89295413,1.1198784)"><tspan
         sodipodi:role="line"
         id="tspan3821"
         x="52.272602"
         y="247.83809"
         style="font-style:normal;font-variant:normal;font-weight:normal;font-stretch:normal;font-family:Ubuntu;-inkscape-font-specification:Ubuntu;fill:#ffffff;fill-opacity:1;stroke-width:0.42044994">NETW     RK</tspan></text>
    <rect
       style="fill:#00ffff;fill-opacity:1;stroke:none;stroke-width:0.41921657;stroke-opacity:1"
       id="rect3825"
       width="17.543671"
       height="13.183658"
       x="126.00776"
       y="264.41003" />
    <text
       xml:space="preserve"
       style="font-style:normal;font-weight:normal;font-size:9.71040058px;line-height:1.25;font-family:sans-serif;letter-spacing:0px;word-spacing:0px;fill:#000000;fill-opacity:1;stroke:none;stroke-width:0.24276003"
       x="170.03166"
       y="205.79469"
       id="text3829"
       transform="scale(0.74820107,1.3365391)"><tspan
         sodipodi:role="line"
         id="tspan3827"
         x="170.03166"
         y="205.79469"
         style="font-style:normal;font-variant:normal;font-weight:normal;font-stretch:normal;font-family:Ubuntu;-inkscape-font-specification:Ubuntu;fill:#000000;fill-opacity:1;stroke-width:0.24276003">.com</tspan></text>
  </g>
</svg>
